<svg width="169" height="149" viewBox="0 0 169 149" fill="none" xmlns="http://www.w3.org/2000/svg">
<g clip-path="url(#clip0_16_2340)">
<path d="M84.1706 3.78864H44.8965C22.1922 3.78864 3.7793 22.2374 3.7793 45.0066V72.3111V90.5079C3.7793 96.9001 6.94431 101.407 15.3223 106.101L84.1706 145.005L153.019 106.101C161.388 101.407 164.562 96.9001 164.562 90.5079V45.0066C164.562 22.2467 146.158 3.78864 123.445 3.78864H84.1706Z" fill="#386642"/>
<path d="M84.1614 148.775C83.5191 148.775 82.8861 148.616 82.309 148.29L13.4606 109.386C4.03074 104.104 0 98.4492 0 90.4986V44.9973C0 20.1844 20.1351 0 44.8873 0H123.436C148.188 0 168.323 20.1844 168.323 44.9973V90.4986C168.323 98.4492 164.292 104.104 154.853 109.395L86.0139 148.29C85.4367 148.616 84.8037 148.775 84.1614 148.775ZM44.8873 7.56799C24.2961 7.56799 7.54949 24.3557 7.54949 44.9973V90.4986C7.54949 94.7632 9.15992 98.3092 17.1562 102.788L84.1614 140.656L151.157 102.798C159.172 98.3092 160.773 94.7632 160.773 90.5079V45.0067C160.773 24.365 144.027 7.57732 123.436 7.57732H44.8873V7.56799Z" fill="#FA5A14"/>
<path d="M84.1614 147.17L83.2305 146.647L14.3915 107.734C5.5108 102.76 1.88965 97.768 1.88965 90.4986V44.9973C1.88965 21.2296 21.1776 1.89432 44.8873 1.89432H123.435C147.145 1.89432 166.433 21.2296 166.433 44.9973V90.4986C166.433 97.768 162.812 102.76 153.922 107.744L84.1521 147.17H84.1614ZM44.8873 5.67365C23.2628 5.67365 5.65974 23.3198 5.65974 44.9973V90.4986C5.65974 95.3137 7.45635 99.5223 16.2346 104.44L84.1614 142.821L152.088 104.44C160.866 99.5223 162.672 95.3137 162.672 90.4986V44.9973C162.672 23.3105 145.079 5.67365 123.445 5.67365H44.8873Z" fill="white"/>
<path d="M37.8963 59.8534C34.0703 60.7585 32.1713 61.2531 28.3919 62.3449C28.0289 61.0758 27.8427 60.4413 27.4797 59.1815C26.9025 57.1845 26.4557 55.9621 26.1206 55.5141C25.7854 55.0662 25.2734 54.9449 24.5753 55.1502C23.9702 55.3275 23.6165 55.6728 23.5327 56.1673C23.4489 56.6619 23.6723 57.8004 24.2122 59.5641C26.2416 66.2269 27.2562 69.5583 29.2856 76.2211C29.7603 77.7795 30.1699 78.778 30.505 79.2072C30.8495 79.6458 31.3056 79.7765 31.8734 79.5992C32.4971 79.4126 32.8509 79.0113 32.916 78.3861C32.9812 77.7608 32.7857 76.641 32.3203 75.0173C31.8455 73.3656 31.6128 72.5351 31.138 70.8834C30.4119 71.0887 30.0396 71.2007 29.3135 71.4153C28.6898 69.297 28.3733 68.2425 27.7496 66.1336C32.0968 64.8365 34.2844 64.2579 38.6875 63.2128C40.4655 70.7994 41.3592 74.5881 43.1372 82.1747C41.0054 82.6786 39.9535 82.9492 37.8311 83.5092C37.254 82.5853 36.9561 82.1281 36.3696 81.2136C36.081 82.4547 35.5784 83.4625 34.8709 84.2557C34.1541 85.0489 33.2139 85.6088 32.041 85.9727C30.6447 86.402 29.2297 86.4486 27.7682 86.1314C26.3067 85.8047 25.0687 85.2262 24.054 84.3863C23.0393 83.5465 22.2388 82.5667 21.6523 81.4469C21.0658 80.3364 20.3584 78.6007 19.5113 76.2491C18.0498 72.1898 17.3237 70.1649 15.8715 66.1056C14.6986 62.8395 14.0377 60.4039 13.898 58.7895C13.7584 57.1752 14.3821 55.4208 15.825 53.5545C17.2678 51.6881 19.5113 50.2604 22.5273 49.3646C25.4876 48.478 28.1127 48.3567 30.3468 48.9446C32.5809 49.5325 34.1634 50.5403 35.1129 51.9214C36.0624 53.3025 36.863 55.4395 37.5425 58.3323C37.6822 58.9389 37.7566 59.2468 37.9056 59.8627L37.8963 59.8534Z" fill="white"/>
<path d="M37.3008 46.2851C40.1958 45.6412 41.6387 45.3426 44.5524 44.7921C49.393 43.8869 52.7256 43.5883 54.4943 43.6909C56.2629 43.7936 57.7803 44.4841 59.0184 45.7625C60.2564 47.041 61.0291 49.2153 61.3735 52.2947C61.6807 55.1036 61.5317 57.0259 60.9267 58.0804C60.3216 59.1255 58.9997 59.872 56.9518 60.348C58.8973 60.5439 60.2285 61.0105 60.9639 61.7104C61.6993 62.4103 62.1741 63.0728 62.3975 63.698C62.6209 64.3233 62.9002 66.0963 63.2167 69.0077C63.6356 72.8151 63.8497 74.7187 64.2686 78.5167C61.0756 78.8713 59.4838 79.086 56.3002 79.5899C55.5555 74.8214 55.1831 72.4418 54.4384 67.6733C54.1405 65.751 53.8054 64.5845 53.4237 64.1833C53.0514 63.7727 52.2136 63.67 50.929 63.894C52.0367 70.3422 52.5952 73.5709 53.703 80.0191C50.2866 80.607 48.5831 80.943 45.1947 81.7082C42.5696 69.9036 39.9445 58.099 37.3101 46.2945L37.3008 46.2851ZM48.6017 50.3724C49.151 53.5545 49.4209 55.1409 49.9701 58.323C51.05 58.1363 51.7854 57.8751 52.1763 57.5111C52.5673 57.1565 52.6418 56.186 52.3904 54.609C52.2694 53.8251 52.2043 53.4239 52.0833 52.64C51.9064 51.5015 51.5713 50.7923 51.0779 50.503C50.5845 50.2231 49.7654 50.1671 48.6111 50.3724H48.6017Z" fill="white"/>
<path d="M80.7267 41.1714C82.8771 53.2092 84.7016 65.3124 86.191 77.4529C82.6629 77.4063 80.8943 77.4249 77.3662 77.5556C77.0869 74.952 76.9473 73.6549 76.6494 71.0514C75.3648 71.098 74.7318 71.1354 73.4472 71.2007C73.382 73.8136 73.3448 75.1293 73.2982 77.7422C69.7329 77.9568 67.9456 78.1061 64.3896 78.4981C64.5293 66.2922 64.9761 54.0957 65.7115 41.9086C71.7064 41.3953 74.7132 41.246 80.7267 41.162V41.1714ZM76.156 64.6312C75.523 60.5439 74.8156 55.4862 74.0243 49.4672C73.3355 56.4566 73.0283 61.5611 72.9724 64.7805C74.2477 64.7058 74.8807 64.6779 76.156 64.6219V64.6312Z" fill="white"/>
<path d="M110.095 42.7764C108.615 54.777 107.126 66.7868 105.646 78.7874C102.639 78.4141 101.122 78.2554 98.1055 78.0128C96.8395 71.294 96.1228 67.9346 94.5309 61.2345C94.1679 67.8226 93.9817 71.1167 93.6187 77.7049C90.7329 77.5462 89.29 77.4902 86.4043 77.4529C86.5812 65.3591 86.758 53.2652 86.9349 41.1714C90.4164 41.218 92.1479 41.2834 95.6294 41.4793C97.6029 48.1328 98.4965 51.4735 100.107 58.1644C100.647 51.6508 100.917 48.3941 101.447 41.8806C104.92 42.1699 106.651 42.3472 110.105 42.7764H110.095Z" fill="white"/>
<path d="M112.731 43.1123C115.821 43.5323 117.366 43.7749 120.438 44.3161C125.409 45.184 128.705 46.1358 130.343 46.929C131.981 47.7222 133.136 48.7114 133.806 49.8591C134.467 51.0069 134.765 52.1827 134.69 53.3679C134.625 54.5623 134.169 56.8206 133.322 60.152C132.074 65.0791 131.451 67.5427 130.194 72.4698C129.393 75.6239 128.714 77.7049 128.165 78.694C127.615 79.6832 126.927 80.4017 126.089 80.831C125.251 81.2696 124.311 81.4842 123.24 81.4935C122.179 81.5029 120.634 81.2882 118.595 80.8776C114.304 80.0191 112.144 79.6552 107.815 79.058C109.444 67.0761 111.083 55.0849 112.712 43.103L112.731 43.1123ZM121.89 50.8856C120.14 60.2733 119.265 64.9671 117.515 74.3548C118.791 74.5974 119.619 74.4854 120.019 74.0095C120.42 73.5336 120.866 72.1059 121.341 69.7356C122.458 64.2113 123.017 61.4491 124.134 55.9154C124.46 54.301 124.618 53.2652 124.599 52.7893C124.581 52.3134 124.395 51.9308 124.041 51.6415C123.687 51.3522 122.97 51.1003 121.881 50.895L121.89 50.8856Z" fill="white"/>
<path d="M138.777 48.3568C145.535 50.1578 148.886 51.2029 155.523 53.5732C154.555 56.3073 154.062 57.6791 153.094 60.4133C150.534 59.4988 149.24 59.0602 146.652 58.2297C145.814 60.8519 145.395 62.1583 144.567 64.7805C146.903 65.527 148.076 65.919 150.394 66.7495C149.473 69.353 149.016 70.6501 148.095 73.2537C145.851 72.4605 144.725 72.0779 142.472 71.3593C141.504 74.4015 141.02 75.9225 140.052 78.9646C142.593 79.7765 143.859 80.2151 146.382 81.1203C145.405 83.8544 144.911 85.2169 143.924 87.951C138.199 85.8888 135.304 84.9836 129.468 83.4252C132.568 71.7326 135.677 60.0493 138.777 48.3568Z" fill="white"/>
<path d="M30.0954 33.79C29.9744 33.79 29.9092 33.7247 29.8813 33.622L26.2695 22.5826C26.2322 22.4707 26.3067 22.396 26.4184 22.396H28.5874C28.7084 22.396 28.7735 22.4427 28.8015 22.564L31.0728 30.0293H31.1194L33.3256 22.564C33.3628 22.4427 33.428 22.396 33.5397 22.396H35.69C35.7924 22.396 35.8576 22.4613 35.8203 22.5826L32.2085 33.622C32.1713 33.7247 32.1061 33.79 32.0037 33.79H30.0675H30.0954Z" fill="#33FF99"/>
<path d="M37.1329 31.2144C36.8816 30.4306 36.8164 29.7867 36.8164 28.0977C36.8164 26.4086 36.8816 25.7647 37.1329 24.9809C37.7194 23.1425 39.2833 22.2187 41.2754 22.2187C43.2674 22.2187 44.8313 23.1425 45.4178 24.9809C45.6691 25.7647 45.7343 26.4086 45.7343 28.0977C45.7343 29.7867 45.6691 30.4212 45.4178 31.2144C44.8313 33.0528 43.2581 33.9766 41.2754 33.9766C39.2926 33.9766 37.7194 33.0528 37.1329 31.2144ZM43.0627 30.5426C43.193 30.1413 43.2488 29.5907 43.2488 28.0977C43.2488 26.6046 43.2023 26.054 43.0627 25.6528C42.8113 24.8689 42.2062 24.393 41.2754 24.393C40.3445 24.393 39.7394 24.8596 39.488 25.6528C39.3577 26.054 39.3019 26.6046 39.3019 28.0977C39.3019 29.5907 39.3484 30.1413 39.488 30.5426C39.7394 31.3264 40.3445 31.8023 41.2754 31.8023C42.2062 31.8023 42.8113 31.3358 43.0627 30.5426Z" fill="#33FF99"/>
<path d="M47.2979 28.0977C47.2979 26.3433 47.363 25.7554 47.6144 25.0182C48.2194 23.1612 49.6716 22.2187 51.6544 22.2187C53.6372 22.2187 54.9777 23.1519 55.6107 24.7476C55.6572 24.8316 55.6293 24.9156 55.5269 24.9529L53.7023 25.7741C53.5999 25.8207 53.5162 25.7927 53.4696 25.6901C53.1531 24.9529 52.6132 24.4023 51.6637 24.4023C50.7794 24.4023 50.2115 24.8689 49.9602 25.6621C49.8299 26.082 49.774 26.4833 49.774 28.107C49.774 29.7307 49.8205 30.132 49.9602 30.5519C50.2115 31.3358 50.7794 31.8117 51.6637 31.8117C52.6132 31.8117 53.1531 31.2611 53.4696 30.5239C53.5162 30.4212 53.5999 30.3933 53.7023 30.4399L55.5269 31.2611C55.6293 31.2984 55.6572 31.3824 55.6107 31.4571C54.9777 33.0528 53.572 33.9859 51.6544 33.9859C49.7368 33.9859 48.2101 33.0528 47.6144 31.1864C47.363 30.4492 47.2979 29.8613 47.2979 28.107V28.0977Z" fill="#33FF99"/>
<path d="M57.2031 22.5733C57.2031 22.4707 57.2683 22.4054 57.3707 22.4054H64.6502C64.7526 22.4054 64.8178 22.4707 64.8178 22.5733V24.365C64.8178 24.4677 64.7526 24.533 64.6502 24.533H59.7538C59.6886 24.533 59.6514 24.5703 59.6514 24.6356V26.8939C59.6514 26.9592 59.6886 26.9965 59.7538 26.9965H63.831C63.9334 26.9965 63.9986 27.0619 63.9986 27.1645V28.9375C63.9986 29.0402 63.9334 29.1055 63.831 29.1055H59.7538C59.6886 29.1055 59.6514 29.1428 59.6514 29.2081V31.5691C59.6514 31.6344 59.6886 31.6717 59.7538 31.6717H64.6502C64.7526 31.6717 64.8178 31.737 64.8178 31.8397V33.6314C64.8178 33.734 64.7526 33.7993 64.6502 33.7993H57.3707C57.2683 33.7993 57.2031 33.734 57.2031 33.6314V22.5827V22.5733ZM62.2765 21.2856C62.1089 21.2856 62.0437 21.2482 61.9134 21.1176L61.0291 20.2124H60.9918L60.1261 21.1176C59.9958 21.2482 59.9213 21.2856 59.7631 21.2856H58.4226C58.3202 21.2856 58.2923 21.2016 58.3574 21.1176L60.0796 18.9246C60.1633 18.8033 60.2657 18.7567 60.3961 18.7567H61.6528C61.7831 18.7567 61.8669 18.8033 61.9506 18.9246L63.6914 21.1176C63.7566 21.2016 63.7286 21.2856 63.6262 21.2856H62.2858H62.2765Z" fill="#33FF99"/>
<path d="M70.7476 33.79C70.6452 33.79 70.5801 33.7247 70.5801 33.622V22.5733C70.5801 22.4707 70.6452 22.4053 70.7476 22.4053H75.16C77.6362 22.4053 79.1163 23.8984 79.1163 26.0727C79.1163 28.247 77.6083 29.7214 75.16 29.7214H73.14C73.0749 29.7214 73.0376 29.7587 73.0376 29.824V33.622C73.0376 33.7247 72.9725 33.79 72.8701 33.79H70.7476ZM76.6588 26.0727C76.6588 25.1489 76.0444 24.533 75.0018 24.533H73.1307C73.0655 24.533 73.0283 24.5703 73.0283 24.6356V27.5004C73.0283 27.5658 73.0655 27.6031 73.1307 27.6031H75.0018C76.0351 27.6031 76.6588 26.9965 76.6588 26.082V26.0727Z" fill="#33FF99"/>
<path d="M80.6983 31.2144C80.447 30.4306 80.3818 29.7867 80.3818 28.0977C80.3818 26.4086 80.447 25.7647 80.6983 24.9809C81.2848 23.1425 82.8487 22.2187 84.8408 22.2187C86.8329 22.2187 88.3968 23.1425 88.9832 24.9809C89.2346 25.7647 89.2997 26.4086 89.2997 28.0977C89.2997 29.7867 89.2346 30.4212 88.9832 31.2144C88.3968 33.0528 86.8236 33.9766 84.8408 33.9766C82.858 33.9766 81.2848 33.0528 80.6983 31.2144ZM86.6281 30.5426C86.7584 30.1413 86.8143 29.5907 86.8143 28.0977C86.8143 26.6046 86.7677 26.054 86.6281 25.6528C86.3767 24.8689 85.7717 24.393 84.8408 24.393C83.9099 24.393 83.3048 24.8596 83.0535 25.6528C82.9232 26.054 82.8673 26.6046 82.8673 28.0977C82.8673 29.5907 82.9138 30.1413 83.0535 30.5426C83.3048 31.3264 83.9099 31.8023 84.8408 31.8023C85.7717 31.8023 86.3767 31.3358 86.6281 30.5426Z" fill="#33FF99"/>
<path d="M91.1611 22.5733C91.1611 22.4707 91.2263 22.4053 91.3287 22.4053H95.5549C97.547 22.4053 98.9247 23.2639 99.4833 24.9716C99.6881 25.6061 99.7811 26.2407 99.7811 28.107C99.7811 29.9733 99.6787 30.5986 99.4833 31.2424C98.934 32.9501 97.547 33.8087 95.5549 33.8087H91.3287C91.2263 33.8087 91.1611 33.7433 91.1611 33.6407V22.592V22.5733ZM93.7211 31.597H95.0057C96.1414 31.597 96.8302 31.2611 97.1095 30.3373C97.2305 30.0013 97.2957 29.5627 97.2957 28.0977C97.2957 26.6326 97.2305 26.1847 97.1095 25.8487C96.8209 24.9249 96.1414 24.589 95.0057 24.589H93.7211C93.6559 24.589 93.6187 24.6263 93.6187 24.6916V31.4944C93.6187 31.5597 93.6559 31.597 93.7211 31.597Z" fill="#33FF99"/>
<path d="M101.689 22.5733C101.689 22.4707 101.755 22.4053 101.857 22.4053H109.137C109.239 22.4053 109.304 22.4707 109.304 22.5733V24.365C109.304 24.4677 109.239 24.533 109.137 24.533H104.24C104.175 24.533 104.138 24.5703 104.138 24.6356V26.8939C104.138 26.9592 104.175 26.9965 104.24 26.9965H108.317C108.42 26.9965 108.485 27.0619 108.485 27.1645V28.9375C108.485 29.0402 108.42 29.1055 108.317 29.1055H104.24C104.175 29.1055 104.138 29.1428 104.138 29.2081V31.5691C104.138 31.6344 104.175 31.6717 104.24 31.6717H109.137C109.239 31.6717 109.304 31.737 109.304 31.8397V33.6314C109.304 33.734 109.239 33.7993 109.137 33.7993H101.857C101.755 33.7993 101.689 33.734 101.689 33.6314V22.5827V22.5733Z" fill="#33FF99"/>
<path d="M114.508 32.4182C114.443 32.3529 114.406 32.2316 114.49 32.1383L115.756 30.6825C115.821 30.5986 115.923 30.5986 116.007 30.6639C116.761 31.2704 117.776 31.8397 118.977 31.8397C120.178 31.8397 120.829 31.2891 120.829 30.4866C120.829 29.8147 120.429 29.3948 119.079 29.2175L118.474 29.1335C116.165 28.8162 114.881 27.7244 114.881 25.7181C114.881 23.7118 116.454 22.2374 118.902 22.2374C120.41 22.2374 121.807 22.6853 122.765 23.4225C122.868 23.4878 122.877 23.5531 122.803 23.6745L121.788 25.1955C121.723 25.2795 121.639 25.2982 121.555 25.2422C120.69 24.6729 119.852 24.3743 118.921 24.3743C117.916 24.3743 117.404 24.8969 117.404 25.6154C117.404 26.2687 117.869 26.6886 119.172 26.8752L119.777 26.9592C122.114 27.2765 123.352 28.3496 123.352 30.4119C123.352 32.4742 121.835 33.9953 118.893 33.9953C117.124 33.9953 115.402 33.2954 114.518 32.4369L114.508 32.4182Z" fill="#33FF99"/>
<path d="M124.999 22.5733C124.999 22.4707 125.064 22.4053 125.167 22.4053H132.446C132.549 22.4053 132.614 22.4707 132.614 22.5733V24.365C132.614 24.4677 132.549 24.533 132.446 24.533H127.55C127.484 24.533 127.447 24.5703 127.447 24.6356V26.8939C127.447 26.9592 127.484 26.9965 127.55 26.9965H131.627C131.729 26.9965 131.794 27.0619 131.794 27.1645V28.9375C131.794 29.0402 131.729 29.1055 131.627 29.1055H127.55C127.484 29.1055 127.447 29.1428 127.447 29.2081V31.5691C127.447 31.6344 127.484 31.6717 127.55 31.6717H132.446C132.549 31.6717 132.614 31.737 132.614 31.8397V33.6314C132.614 33.734 132.549 33.7993 132.446 33.7993H125.167C125.064 33.7993 124.999 33.734 124.999 33.6314V22.5827V22.5733Z" fill="#33FF99"/>
<path d="M140.712 33.79C140.563 33.79 140.517 33.7433 140.461 33.622L138.506 29.4508H136.989C136.923 29.4508 136.886 29.4881 136.886 29.5534V33.622C136.886 33.7247 136.821 33.79 136.719 33.79H134.596C134.494 33.79 134.429 33.7247 134.429 33.622V22.5733C134.429 22.4707 134.494 22.4053 134.596 22.4053H139.12C141.438 22.4053 142.974 23.8611 142.974 25.9421C142.974 27.3978 142.202 28.5549 140.954 29.1055L143.188 33.594C143.235 33.6967 143.188 33.7993 143.077 33.7993H140.703L140.712 33.79ZM140.526 25.9421C140.526 25.0835 139.921 24.533 138.99 24.533H136.989C136.923 24.533 136.886 24.5703 136.886 24.6356V27.2672C136.886 27.3325 136.923 27.3698 136.989 27.3698H138.99C139.921 27.3698 140.526 26.8192 140.526 25.9421Z" fill="#33FF99"/>
<path d="M63.998 119.277V114.91V110.543L84.161 123.029L104.333 110.543V114.91V119.277L84.161 131.763L63.998 119.277Z" fill="#FA5A14"/>
<path d="M63.998 106.68V102.312V97.9453L84.161 110.422L104.333 97.9453V102.312V106.68L84.161 119.156L63.998 106.68Z" fill="#FA5A14"/>
<path d="M63.998 94.0819V89.7054V85.3382L84.161 97.824L104.333 85.3382V89.7054V94.0819L84.161 106.558L63.998 94.0819Z" fill="#FA5A14"/>
</g>
<defs>
<clipPath id="clip0_16_2340">
<rect width="168.332" height="148.775" fill="white"/>
</clipPath>
</defs>
</svg>
