<svg xmlns="http://www.w3.org/2000/svg" width="227" height="124" fill="none" viewBox="0 0 227 124"><g fill="#fff" clip-path="url(#a)"><path d="M162.628 1.561c-7.642-3.206-16.163-1.38-22.237 4.781l-26.718 27.096L86.942 6.356C80.867.18 72.332-1.66 64.69 1.56c-8.233 3.457-13.359 11.89-13.359 21.981v44.924c0 5.896 4 11.861 9.497 14.175a14 14 0 0 0 5.456 1.087c3.917 0 9.03-1.589 14.706-7.345l4.11-4.168 4.067 4.126c8.246 8.39 14.197 14.454 24.478 14.454h.11c10.184 0 16.135-6.063 24.381-14.454l4.054-4.126 4.109 4.168c5.677 5.756 10.789 7.345 14.706 7.345 2.254 0 4.109-.53 5.456-1.087 5.512-2.314 9.497-8.28 9.497-14.175V23.542c0-10.105-5.112-18.524-13.359-21.98zm-99.16 74.654c-3.299-1.394-5.278-5.032-5.278-7.763v-44.91c0-7.346 3.409-13.172 9.126-15.57 5.112-2.146 10.637-.92 14.774 3.276l26.732 27.11-8.673 8.796-26.95-27.334a3.37 3.37 0 0 0-3.725-.752 3.48 3.48 0 0 0-2.117 3.206V52.77c0 .92.357 1.798 1.003 2.453l11.916 12.085-4.11 4.167c-4.535 4.6-9.042 6.287-12.712 4.753zm89.649-24.88-10.912 11.067-10.198-10.342 21.11-21.41zm-39.458 9.506-8.672-8.795 8.672-8.795 8.673 8.795zm-28.545 1.561L74.2 51.335V30.651L95.31 52.06zm48.185 9.032c-7.861 8.001-12.191 12.42-19.64 12.42h-.11c-7.339 0-11.668-4.405-19.53-12.406l-4.067-4.14 10.197-10.342 11.091 11.249a3.37 3.37 0 0 0 2.419 1.017c.88 0 1.746-.334 2.419-1.017l11.091-11.249 10.198 10.343zm35.843-2.968c0 2.718-1.979 6.37-5.277 7.763-3.656 1.547-8.178-.153-12.713-4.753l-4.109-4.167 11.915-12.085a3.48 3.48 0 0 0 1.004-2.453V22.274s0-.112-.014-.168a2.2 2.2 0 0 0-.055-.515c-.028-.126-.069-.237-.11-.363-.028-.097-.055-.195-.083-.279-.054-.139-.137-.264-.206-.404-.041-.07-.068-.14-.11-.195a3.3 3.3 0 0 0-.948-.962c-.069-.055-.151-.083-.234-.125-.123-.07-.233-.14-.357-.195-.11-.042-.22-.07-.33-.112-.096-.028-.192-.07-.302-.097a3.7 3.7 0 0 0-1.347 0c-.11.028-.206.055-.302.097a1.5 1.5 0 0 0-.33.112 3 3 0 0 0-.358.195c-.068.042-.151.07-.233.125a3.3 3.3 0 0 0-.536.446l-26.938 27.32-8.672-8.796 26.731-27.11c4.151-4.195 9.662-5.422 14.775-3.275 5.717 2.397 9.126 8.223 9.126 15.569v44.924zm-152.54 33.97.11 16.922H13.14l-.096-10.872-4.687 5.017-4.686-5.017-.097 10.872H0l.11-16.922h2.804l5.442 5.827 5.443-5.827zm18.059 16.922h-3.835l-1.168-3.318h-4.947l-1.21 3.318h-3.78l6.048-16.922h2.845zm-6.295-6.928-1.168-3.317-1.195 3.317zm21.289-9.994v3.624h-5.044v13.311h-3.573V106.06h-5.044v-3.624zm2.543-.028h5.786c3.34 0 6.075 2.746 6.075 6.161a6.165 6.165 0 0 1-3.78 5.701l3.175 5.088h-4.15l-2.776-4.6h-.743v4.572h-3.573v-16.922zm3.574 8.698h2.212c1.375 0 2.502-1.143 2.502-2.537s-1.127-2.537-2.502-2.537h-2.212zm15.214 8.252h-3.574v-16.922h3.573zm16.148-14.12-7.394 10.51h7.16v3.623H74.532v-2.773l7.394-10.538h-7.394v-3.624h12.603zm8.988-2.802h12.397v3.624h-8.824v3.025h5.25v3.624h-5.25v3.025h8.824v3.624H96.123zm20.876 16.922h-5.621v-16.922h5.621c4.604 0 8.329 3.805 8.329 8.475 0 4.669-3.739 8.447-8.329 8.447m-2.061-3.61h2.047c2.639 0 4.756-2.175 4.756-4.823s-2.131-4.851-4.756-4.851h-2.047v9.687zm21.481-13.312h3.574v10.134c0 3.735-2.983 6.788-6.693 6.788-3.711 0-6.694-3.053-6.694-6.788v-10.134h3.574v10.134c0 1.756 1.402 3.178 3.133 3.178s3.134-1.422 3.134-3.178v-10.134zm19.09 10.412 2.598 2.635-1.306 1.324c-1.608 1.659-3.752 2.578-6.075 2.551-4.714 0-8.562-3.903-8.562-8.684s3.848-8.712 8.562-8.712c2.282 0 4.481.92 6.075 2.551l1.306 1.296-2.598 2.635-1.306-1.297c-.934-.975-2.171-1.449-3.477-1.463-2.68 0-4.906 2.244-4.906 4.99s2.213 4.976 4.906 4.976a4.8 4.8 0 0 0 3.477-1.464l1.306-1.324zm19.048 6.51h-3.834l-1.168-3.318h-4.948l-1.209 3.318h-3.78l6.047-16.922h2.845zm-6.308-6.928-1.168-3.317-1.196 3.317zm20.987.418 2.597 2.635-1.305 1.324c-1.608 1.659-3.752 2.578-6.075 2.551-4.714 0-8.562-3.903-8.562-8.684s3.848-8.712 8.562-8.712c2.281 0 4.48.92 6.075 2.551l1.305 1.296-2.597 2.635-1.306-1.297c-.935-.975-2.171-1.449-3.477-1.463-2.68 0-4.907 2.244-4.907 4.99s2.213 4.976 4.907 4.976a4.8 4.8 0 0 0 3.477-1.464l1.306-1.324zm19.048 6.51h-3.834l-1.169-3.318h-4.947l-1.21 3.318h-3.779l6.047-16.922h2.845zm-6.308-6.928-1.168-3.317-1.196 3.317zm24.354-1.756c0 4.781-3.876 8.684-8.617 8.684s-8.563-3.903-8.563-8.684 3.849-8.739 8.563-8.739 8.617 3.93 8.617 8.739m-3.67 0c0-2.774-2.212-5.018-4.947-5.018s-4.907 2.244-4.907 5.018 2.213 4.976 4.907 4.976 4.947-2.244 4.947-4.976m-18.677-10.259h-5.923v-2.272h5.923zm-16.245 23.054h-5.924v-2.272h5.924z"/></g><defs><clipPath id="a"><path fill="#fff" d="M0 0h226.33v123.453H0z"/></clipPath></defs></svg>