<svg xmlns="http://www.w3.org/2000/svg" width="169" height="149" fill="none" viewBox="0 0 169 149"><g clip-path="url(#a)"><path fill="#386642" d="M84.17 3.789H44.898C22.193 3.789 3.78 22.237 3.78 45.007v45.501c0 6.392 3.165 10.899 11.543 15.593l68.849 38.904 68.848-38.904c8.369-4.694 11.543-9.2 11.543-15.593V45.007c0-22.76-18.404-41.218-41.117-41.218z"/><path fill="#fa5a14" d="M84.161 148.775a3.75 3.75 0 0 1-1.852-.485l-68.848-38.904C4.03 104.104 0 98.449 0 90.499V44.997C0 20.184 20.135 0 44.887 0h78.549c24.752 0 44.887 20.184 44.887 44.997V90.5c0 7.95-4.031 13.605-13.47 18.896l-68.84 38.895a3.75 3.75 0 0 1-1.852.485M44.887 7.568c-20.59 0-37.338 16.788-37.338 37.43v45.5c0 4.265 1.61 7.811 9.607 12.29l67.005 37.868 66.996-37.858c8.015-4.489 9.616-8.035 9.616-12.29V45.007c0-20.642-16.746-37.43-37.337-37.43H44.887z"/><path fill="#fff" d="m84.161 147.17-.93-.523-68.84-38.913C5.512 102.76 1.89 97.768 1.89 90.499V44.997c0-23.767 19.288-43.103 42.997-43.103h78.548c23.71 0 42.998 19.336 42.998 43.103V90.5c0 7.269-3.621 12.261-12.511 17.245l-69.77 39.426zM44.887 5.674C23.263 5.674 5.66 23.32 5.66 44.997V90.5c0 4.815 1.796 9.023 10.575 13.941l67.926 38.381 67.927-38.381c8.778-4.918 10.584-9.126 10.584-13.941V44.997c0-21.686-17.593-39.323-39.227-39.323z"/><path fill="#fff" d="M37.896 59.853c-3.826.905-5.725 1.4-9.504 2.492-.363-1.27-.55-1.904-.912-3.163-.578-1.998-1.024-3.22-1.36-3.668-.335-.448-.847-.57-1.545-.364-.605.178-.959.523-1.042 1.017-.084.495.14 1.633.68 3.397l5.073 16.657c.474 1.558.884 2.557 1.219 2.986q.517.659 1.368.392c.624-.186.978-.588 1.043-1.213s-.13-1.745-.596-3.369c-.474-1.651-.707-2.482-1.182-4.134-.726.206-1.098.318-1.825.532-.623-2.118-.94-3.172-1.563-5.281 4.347-1.297 6.534-1.876 10.938-2.921 1.777 7.586 2.671 11.375 4.45 18.962-2.133.504-3.184.774-5.307 1.334-.577-.924-.875-1.38-1.461-2.295-.289 1.24-.792 2.249-1.5 3.042-.716.793-1.656 1.353-2.829 1.717-1.396.429-2.811.476-4.273.158q-2.192-.487-3.714-1.745a9.5 9.5 0 0 1-2.402-2.94c-.586-1.11-1.294-2.845-2.14-5.197a4423 4423 0 0 1-3.64-10.143c-1.173-3.266-1.834-5.702-1.974-7.316-.14-1.615.484-3.37 1.927-5.236s3.686-3.294 6.702-4.19c2.96-.886 5.586-1.007 7.82-.42 2.234.588 3.816 1.596 4.766 2.977.95 1.382 1.75 3.519 2.43 6.411.14.607.214.915.363 1.53zM37.3 46.285c2.896-.644 4.339-.942 7.252-1.493 4.841-.905 8.174-1.204 9.942-1.101s3.286.793 4.524 2.072 2.011 3.452 2.355 6.532c.308 2.809.159 4.73-.446 5.785-.605 1.046-1.927 1.792-3.975 2.268 1.945.196 3.276.663 4.012 1.362s1.21 1.363 1.434 1.988.502 2.398.819 5.31c.419 3.807.633 5.71 1.052 9.509-3.193.354-4.785.569-7.969 1.073-.744-4.769-1.117-7.148-1.862-11.917q-.444-2.885-1.014-3.49c-.373-.41-1.21-.513-2.495-.289 1.108 6.448 1.666 9.677 2.774 16.125-3.416.588-5.12.924-8.508 1.69-2.625-11.805-5.25-23.61-7.885-35.415zm11.302 4.087c.549 3.182.819 4.769 1.368 7.951 1.08-.187 1.815-.448 2.206-.812.391-.355.466-1.325.214-2.902-.12-.784-.186-1.185-.307-1.969-.177-1.139-.512-1.848-1.005-2.137-.494-.28-1.313-.336-2.467-.13zm32.125-9.201a671 671 0 0 1 5.464 36.282c-3.528-.047-5.297-.028-8.825.103-.28-2.604-.419-3.901-.717-6.505-1.284.047-1.917.084-3.202.15-.065 2.613-.102 3.928-.149 6.541-3.565.215-5.352.364-8.908.756.14-12.206.586-24.402 1.322-36.59 5.994-.513 9.001-.662 15.015-.746zm-4.571 23.46c-.633-4.087-1.34-9.145-2.132-15.164-.689 6.99-.996 12.094-1.052 15.314 1.276-.075 1.909-.103 3.184-.16zm33.939-21.855c-1.48 12.001-2.969 24.01-4.449 36.011a146 146 0 0 0-7.54-.774c-1.266-6.719-1.983-10.078-3.575-16.779-.363 6.589-.55 9.883-.912 16.47a143 143 0 0 0-7.215-.251l.53-36.282c3.482.047 5.214.112 8.695.308 1.974 6.654 2.867 9.995 4.478 16.685.54-6.513.81-9.77 1.34-16.283 3.473.289 5.204.466 8.658.895zm2.636.336c3.09.42 4.635.663 7.707 1.204 4.971.868 8.267 1.82 9.905 2.613s2.793 1.782 3.463 2.93c.661 1.148.959 2.324.884 3.509q-.097 1.79-1.368 6.784c-1.248 4.927-1.871 7.39-3.128 12.318-.801 3.154-1.48 5.235-2.029 6.224-.55.99-1.238 1.708-2.076 2.137-.838.439-1.778.653-2.849.662-1.061.01-2.606-.205-4.645-.615-4.291-.859-6.451-1.223-10.78-1.82 1.629-11.982 3.268-23.973 4.897-35.955zm9.159 7.774-4.375 23.469c1.276.242 2.104.13 2.504-.346.401-.475.847-1.903 1.322-4.273 1.117-5.525 1.676-8.287 2.793-13.82.326-1.615.484-2.65.465-3.127q-.027-.713-.558-1.148c-.354-.289-1.071-.54-2.16-.746zm16.887-2.529c6.758 1.8 10.109 2.846 16.746 5.216-.968 2.734-1.461 4.106-2.429 6.84a174 174 0 0 0-6.442-2.183c-.838 2.622-1.257 3.928-2.085 6.55 2.336.747 3.509 1.139 5.827 1.97l-2.299 6.504a160 160 0 0 0-5.623-1.895l-2.42 7.606a158 158 0 0 1 6.33 2.155c-.977 2.734-1.471 4.097-2.458 6.831-5.725-2.062-8.62-2.967-14.456-4.526 3.1-11.692 6.209-23.376 9.309-35.068"/><path fill="#3f9" d="M30.095 33.79c-.12 0-.186-.065-.214-.168l-3.611-11.04c-.038-.111.037-.186.148-.186h2.17c.12 0 .185.047.213.168l2.272 7.465h.046l2.207-7.465c.037-.121.102-.168.214-.168h2.15c.102 0 .168.065.13.187l-3.61 11.039c-.038.103-.103.168-.205.168h-1.936zm7.038-2.576c-.251-.783-.317-1.427-.317-3.116s.066-2.333.317-3.117c.586-1.839 2.15-2.762 4.142-2.762s3.556.923 4.143 2.762c.251.784.316 1.428.316 3.117s-.065 2.323-.316 3.116c-.587 1.839-2.16 2.763-4.143 2.763s-3.556-.924-4.142-2.763m5.93-.671c.13-.402.186-.952.186-2.445s-.047-2.044-.186-2.445c-.252-.784-.857-1.26-1.788-1.26-.93 0-1.536.467-1.787 1.26-.13.401-.186.952-.186 2.445s.046 2.043.186 2.445c.251.783.856 1.26 1.787 1.26s1.536-.467 1.788-1.26m4.235-2.445c0-1.755.065-2.343.316-3.08.605-1.857 2.058-2.8 4.04-2.8s3.324.934 3.957 2.53c.046.084.018.168-.084.205l-1.825.821c-.102.047-.186.019-.232-.084-.317-.737-.857-1.288-1.806-1.288-.885 0-1.453.467-1.704 1.26-.13.42-.186.821-.186 2.445s.047 2.025.186 2.445c.252.784.82 1.26 1.704 1.26.95 0 1.49-.55 1.806-1.288.046-.103.13-.13.232-.084l1.825.821c.102.037.13.121.084.196-.633 1.596-2.039 2.529-3.957 2.529s-3.444-.933-4.04-2.8c-.251-.737-.316-1.325-.316-3.079zm9.905-5.525c0-.102.065-.168.168-.168h7.28c.102 0 .167.066.167.168v1.792c0 .103-.065.168-.168.168h-4.896c-.065 0-.103.037-.103.103v2.258c0 .065.038.103.103.103h4.077c.102 0 .168.065.168.168v1.773c0 .102-.066.168-.168.168h-4.077c-.065 0-.103.037-.103.102v2.361c0 .065.038.103.103.103h4.896c.103 0 .168.065.168.168v1.791c0 .103-.065.168-.168.168h-7.28c-.102 0-.167-.065-.167-.168zm5.073-1.287c-.167 0-.232-.038-.363-.168l-.884-.906h-.037l-.866.906c-.13.13-.205.168-.363.168h-1.34c-.103 0-.13-.084-.066-.168l1.723-2.193a.36.36 0 0 1 .316-.168h1.257c.13 0 .214.046.298.168l1.74 2.193c.066.084.038.168-.065.168zm8.472 12.504c-.103 0-.168-.065-.168-.168V22.573c0-.102.065-.168.168-.168h4.412c2.476 0 3.956 1.493 3.956 3.668s-1.508 3.648-3.956 3.648h-2.02c-.065 0-.102.038-.102.103v3.798c0 .103-.066.168-.168.168zm5.91-7.717c0-.924-.614-1.54-1.656-1.54H73.13c-.066 0-.103.037-.103.103V27.5c0 .066.037.103.103.103H75c1.034 0 1.658-.607 1.658-1.521zm4.04 5.141c-.251-.783-.316-1.427-.316-3.116s.065-2.333.316-3.117c.587-1.839 2.15-2.762 4.143-2.762s3.556.923 4.142 2.762c.252.784.317 1.428.317 3.117s-.065 2.323-.317 3.116c-.586 1.839-2.16 2.763-4.142 2.763s-3.556-.924-4.143-2.763m5.93-.671c.13-.402.186-.952.186-2.445s-.046-2.044-.186-2.445c-.251-.784-.856-1.26-1.787-1.26s-1.536.467-1.787 1.26c-.13.401-.187.952-.187 2.445s.047 2.043.186 2.445c.252.783.857 1.26 1.788 1.26.93 0 1.536-.467 1.787-1.26m4.533-7.97c0-.102.065-.168.168-.168h4.226c1.992 0 3.37.859 3.928 2.567.205.634.298 1.269.298 3.135s-.102 2.492-.298 3.135c-.549 1.708-1.936 2.567-3.928 2.567h-4.226c-.103 0-.168-.066-.168-.168zm2.56 9.024h1.285c1.135 0 1.824-.336 2.103-1.26.122-.336.187-.774.187-2.24 0-1.464-.066-1.912-.187-2.248-.288-.924-.968-1.26-2.103-1.26H93.72c-.065 0-.102.037-.102.103v6.802c0 .066.037.103.102.103m7.969-9.024c0-.102.066-.168.168-.168h7.28c.102 0 .167.066.167.168v1.792c0 .103-.065.168-.167.168h-4.897c-.065 0-.102.037-.102.103v2.258c0 .065.037.103.102.103h4.077c.103 0 .168.065.168.168v1.773c0 .102-.065.168-.168.168h-4.077c-.065 0-.102.037-.102.102v2.361c0 .065.037.103.102.103h4.897c.102 0 .167.065.167.168v1.791c0 .103-.065.168-.167.168h-7.28c-.102 0-.168-.065-.168-.168zm12.819 9.845c-.065-.065-.102-.186-.018-.28l1.266-1.455c.065-.084.167-.084.251-.02.754.607 1.769 1.177 2.97 1.177s1.852-.55 1.852-1.353c0-.672-.4-1.092-1.75-1.27l-.605-.083c-2.309-.318-3.593-1.41-3.593-3.416s1.573-3.48 4.021-3.48c1.508 0 2.905.447 3.863 1.185.103.065.112.13.038.252l-1.015 1.52c-.065.084-.149.103-.233.047-.865-.57-1.703-.868-2.634-.868-1.005 0-1.517.523-1.517 1.241 0 .654.465 1.074 1.768 1.26l.605.084c2.337.317 3.575 1.39 3.575 3.453s-1.517 3.583-4.459 3.583c-1.769 0-3.491-.7-4.375-1.558zm10.491-9.845c0-.102.065-.168.168-.168h7.279c.103 0 .168.066.168.168v1.792c0 .103-.065.168-.168.168h-4.896c-.066 0-.103.037-.103.103v2.258c0 .065.037.103.103.103h4.077c.102 0 .167.065.167.168v1.773c0 .102-.065.168-.167.168h-4.077c-.066 0-.103.037-.103.102v2.361c0 .065.037.103.103.103h4.896c.103 0 .168.065.168.168v1.791c0 .103-.065.168-.168.168h-7.279c-.103 0-.168-.065-.168-.168zm15.713 11.217c-.149 0-.195-.047-.251-.168l-1.955-4.171h-1.517c-.066 0-.103.037-.103.102v4.069c0 .103-.065.168-.167.168h-2.123c-.102 0-.167-.065-.167-.168V22.573c0-.102.065-.168.167-.168h4.524c2.318 0 3.854 1.456 3.854 3.537 0 1.456-.772 2.613-2.02 3.163l2.234 4.489c.047.103 0 .205-.111.205h-2.374zm-.186-7.848c0-.858-.605-1.409-1.536-1.409h-2.001c-.066 0-.103.037-.103.103v2.631c0 .066.037.103.103.103h2.001c.931 0 1.536-.55 1.536-1.428"/><path fill="#fa5a14" d="M63.998 119.277v-8.734l20.163 12.486 20.172-12.486v8.734l-20.172 12.486z"/><path fill="#fa5a14" d="M63.998 106.68v-8.735l20.163 12.477 20.172-12.477v8.735l-20.172 12.476z"/><path fill="#fa5a14" d="M63.998 94.082v-8.744l20.163 12.486 20.172-12.486v8.744l-20.172 12.476z"/></g><defs><clipPath id="a"><path fill="#fff" d="M0 0h168.332v148.775H0z"/></clipPath></defs></svg>