<svg width="125" height="91" viewBox="0 0 125 91" fill="none" xmlns="http://www.w3.org/2000/svg">
<path d="M111.296 1.5609C103.654 -1.64494 95.1333 0.180992 89.0587 6.34178L62.3411 33.4381L35.6097 6.35571C29.535 0.180992 21.0003 -1.65888 13.3588 1.5609C5.12637 5.01763 0 13.4504 0 23.5418V68.4653C0 74.3613 3.99939 80.3269 9.49684 82.6407C10.8437 83.2122 12.7129 83.7279 14.9531 83.7279C18.87 83.7279 23.9826 82.1389 29.6587 76.3824L33.7681 72.2148L37.8362 76.3406C46.0824 84.7315 52.0334 90.7947 62.3136 90.7947C62.3273 90.7947 62.3411 90.7947 62.3686 90.7947C62.3823 90.7947 62.396 90.7947 62.4235 90.7947C72.6075 90.7947 78.5585 84.7315 86.8047 76.3406L90.8591 72.2148L94.9684 76.3824C100.645 82.1389 105.757 83.7279 109.674 83.7279C111.928 83.7279 113.783 83.1983 115.13 82.6407C120.642 80.3269 124.627 74.3613 124.627 68.4653V23.5418C124.627 13.4364 119.515 5.01763 111.268 1.5609H111.296ZM12.1356 76.2151C8.83715 74.8213 6.85807 71.1833 6.85807 68.4514V23.5418C6.85807 16.1962 10.2665 10.37 15.9838 7.97257C21.0965 5.82605 26.6214 7.05263 30.7582 11.2481L57.4896 38.3583L48.8173 47.1535L21.8661 19.8202C20.8903 18.8306 19.4197 18.524 18.1416 19.0676C16.8634 19.6112 16.0251 20.8656 16.0251 22.2734V52.7707C16.0251 53.6906 16.3824 54.5687 17.0283 55.2238L28.9441 67.3085L24.8347 71.476C20.2993 76.0757 15.7914 77.7623 12.1219 76.229L12.1356 76.2151ZM101.785 51.335L90.8728 62.4021L80.6751 52.0598L101.785 30.6504V51.335ZM62.3273 60.841L53.6551 52.0459L62.3273 43.2507L70.9995 52.0459L62.3273 60.841ZM33.7818 62.4021L22.8694 51.335V30.6504L43.9796 52.0598L33.7818 62.4021ZM81.9669 71.4342C74.1056 79.4349 69.7764 83.8534 62.3273 83.8534C62.3136 83.8534 62.2998 83.8534 62.2724 83.8534C62.2586 83.8534 62.2449 83.8534 62.2174 83.8534C54.8783 83.8534 50.549 79.4488 42.6877 71.4482L38.6196 67.3085L48.8173 56.9661L59.9084 68.2145C60.5819 68.8974 61.4477 69.232 62.3273 69.232C63.2069 69.232 64.0728 68.8974 64.7462 68.2145L75.8373 56.9661L86.0351 67.3085L81.9669 71.4342ZM117.81 68.4653C117.81 71.1833 115.831 74.8352 112.533 76.229C108.877 77.7762 104.355 76.0757 99.8199 71.476L95.7106 67.3085L107.626 55.2238C108.245 54.5966 108.63 53.7324 108.63 52.7707V22.2734C108.63 22.2734 108.63 22.1619 108.616 22.1061C108.616 21.9389 108.602 21.7577 108.561 21.5904C108.533 21.465 108.492 21.3535 108.451 21.228C108.423 21.1304 108.396 21.0329 108.368 20.9492C108.313 20.8099 108.231 20.6844 108.162 20.545C108.121 20.4753 108.094 20.4056 108.052 20.3499C107.805 19.9596 107.475 19.639 107.104 19.3881C107.035 19.3324 106.953 19.3045 106.87 19.2627C106.747 19.193 106.637 19.1233 106.513 19.0676C106.403 19.0257 106.293 18.9979 106.183 18.9561C106.087 18.9282 105.991 18.8864 105.881 18.8585C105.441 18.7749 104.988 18.7749 104.534 18.8585C104.424 18.8864 104.328 18.9142 104.232 18.9561C104.122 18.9839 104.012 19.0118 103.902 19.0676C103.778 19.1233 103.654 19.193 103.544 19.2627C103.476 19.3045 103.393 19.3324 103.311 19.3881C103.118 19.5136 102.94 19.6669 102.775 19.8342L75.8373 47.1535L67.1651 38.3583L93.8964 11.2481C98.047 7.05263 103.558 5.82605 108.671 7.97257C114.388 10.37 117.797 16.1962 117.797 23.5418V68.4653H117.81Z" fill="black"/>
</svg>
